<?xml version="1.0" encoding="utf-8"?>
<!-- Generator: Adobe Illustrator 26.0.3, SVG Export Plug-In . SVG Version: 6.00 Build 0)  -->
<svg version="1.0" id="katman_1" xmlns="http://www.w3.org/2000/svg" xmlns:xlink="http://www.w3.org/1999/xlink" x="0px" y="0px"
	 viewBox="0 0 600 450" style="enable-background:new 0 0 600 450;" xml:space="preserve">
<style type="text/css">
	.st0{fill:url(#SVGID_1_);}
	.st1{fill:#FFFFFF;}
	.st2{fill:#D4323E;}
</style>
<linearGradient id="SVGID_1_" gradientUnits="userSpaceOnUse" x1="421.0686" y1="-10.6997" x2="421.0686" y2="318.6807" gradientTransform="matrix(1 0 0 -1 -120.9449 379.3622)">
	<stop  offset="0.438" style="stop-color:#D4323E"/>
	<stop  offset="0.5709" style="stop-color:#E2455C"/>
</linearGradient>
<path class="st0" d="M464.8,148.5c0-12-1.2-23.8-4-35.4c-1.4-5.9-3.5-11.6-6.3-17c-6.5-12.6-16.4-21.5-29.4-27
	c-7.8-3.3-16-5.3-24.5-6.5c-7-1-13.9-1.8-20.9-1.8c-47.5-0.1-95-0.1-142.4-0.1c-11,0-21.9,0-32.8,1.2c-9.7,1.1-19.3,3-28.4,6.7
	c-11.7,4.8-21.2,12.2-27.9,23c-4.8,7.8-7.7,16.2-9.6,25.1c-2.2,10.2-3.2,20.4-3.2,30.8c0,50.6,0,101.2,0,151.8
	c0,9.5,0.4,19,1.9,28.4c1.3,7.7,3.1,15.3,6.2,22.6c7.2,17.1,20,28.1,37.4,33.9c5.5,1.8,11.2,3.1,17,4c5.4,0.9,10.9,1.7,16.4,1.7
	c28.6,0.1,57.3,0.1,85.9,0.1v0c24.8,0,49.7,0,74.5,0c9.3,0,18.6-0.4,27.9-1.9c8.1-1.3,15.9-3.3,23.4-6.6
	c14.4-6.3,24.7-16.8,30.8-31.3c3.1-7.3,5-14.9,6.2-22.7c1.2-7.9,1.9-15.8,1.9-23.8C464.8,252,464.8,200.2,464.8,148.5z M230.8,197.3
	c1.9-3,4.1-5.7,6.6-8.2c1.3-1.4,1.5-1.4,2.7,0.2c7.3,9.3,14,18.9,20.5,28.8c9.1,13.9,17.3,28.3,24.5,43.2c0.8,1.6,1.5,3.1,2.2,4.7
	c0.2,0.5,1,1.1,0.4,1.7c-0.5,0.4-1.1-0.1-1.6-0.4c-3.5-1.8-7-3.6-10.5-5.4c-10.7-5.7-21.2-11.6-31.1-18.6
	c-4.5-3.2-8.8-6.5-12.7-10.5c-4.7-4.8-7.2-10.6-7.2-18.5C224.5,208.5,227.3,202.8,230.8,197.3z M283.4,246.3
	c-5.4-8.7-10.5-17.6-15-26.9c-3.4-7.1-6.5-14.4-8-22.2c-1.8-9.1-0.4-17.6,6.1-24.6c3.3-3.5,7.4-5.8,12.1-6.9c2-0.5,4-0.9,6-1.3
	c2.5-0.5,3.1-0.1,4.2,2.2c3.4,7.3,5.2,15.1,6.4,23c1.7,11.2,2.4,22.4,2.3,34.3c0.1,8.4-0.5,17.3-1,26.3c-0.2,3.7-0.6,7.3-1,10.9
	c0,0.2,0,0.4-0.1,0.6c-0.1,0.4-0.1,1.1-0.6,1.2c-0.6,0.1-0.8-0.5-1-0.9C290.3,256.8,286.8,251.6,283.4,246.3z M303.1,220.6
	c0.2-12.1,1-24.2,3.3-36.2c1.2-6.3,2.9-12.5,5.8-18.3c0.5-1,1.1-1.8,2.5-1.7c6.9,0.8,13.5,2.3,18.6,7.4c5.1,5.1,8.1,11.2,7.5,18
	c0.2,8-2.2,14.9-4.9,21.6c-4.5,11.2-10.6,21.7-16.8,32.1c-3.7,6.1-7.5,12.1-11.6,18c-0.4,0.6-0.8,1.7-1.6,1.5
	c-0.8-0.2-0.6-1.3-0.6-2c-0.4-4.8-0.9-9.7-1.1-14.5C303.5,237.8,302.9,229.2,303.1,220.6z M313.5,265.8c6.5-14,13.9-27.4,22.1-40.5
	c7.6-12.2,15.8-24.1,24.7-35.5c1.8-2.4,1.9-2.4,3.8-0.2c5.1,5.6,9.4,11.8,11.3,19.2c0.6,2.2,1.2,4.4,1,6.7
	c-0.3,7.8-3.7,14.2-9.5,19.3c-10.4,9.2-22.3,16.1-34.3,22.9c-5.8,3.3-11.8,6.4-17.7,9.4c-0.5,0.3-1.1,0.9-1.6,0.4
	C312.5,267,313.2,266.4,313.5,265.8z M212.8,234.5c0.3-1.3,0.8-1.4,1.9-0.8c13,7.1,25.9,14.2,38.7,21.6c9.4,5.4,18.7,10.9,27.8,16.9
	c0.3,0.2,0.6,0.4,0.9,0.6c0.4,0.4,1.3,0.5,1.1,1.2c-0.2,0.8-1.1,0.5-1.7,0.5c-3.3,0-6.7,0-10,0h-9.6c0,0,0,0,0,0c-6,0-12.1,0-18.1,0
	c-15.6-0.1-28.8-11.2-31.6-26.6C211.4,243.4,211.7,239,212.8,234.5z M227.1,352.7c-4.7-0.1-4.1,0.4-4.1-4.1c0-2.6,0-5.3,0-7.9
	c0-1.3-0.5-1.9-1.8-1.9c-4.1,0-8.2,0-12.3,0c-1.4,0-1.9,0.7-1.8,2c0,3.3,0,6.7,0,10c0,1.3-0.5,1.8-1.8,1.8c-5.1-0.1-4.3,0.6-4.3-4.2
	c0-8.8,0-17.6,0-26.4c0-2.4,0-2.4,2.3-2.4c4.4,0,3.8-0.5,3.8,3.8c0,2.6,0,5.2,0,7.8c0,1.4,0.4,2.1,1.9,2.1c4-0.1,8.1,0,12.1,0
	c1.4,0,1.9-0.6,1.9-2c0-3.3,0-6.6,0-9.9c0-1.3,0.5-1.8,1.8-1.8c5.1,0.1,4.3-0.6,4.3,4.2c0,4.1,0,8.2,0,12.3c0,4.8,0,9.6,0,14.4
	C229.2,352.1,228.7,352.7,227.1,352.7z M228.9,282.4c-0.8-1.3-0.6-1.6,0.9-1.6c0.9,0,1.8,0,2.8,0c0,0,0,0,0-0.1
	c9.9-0.3,19.8-0.6,29.8-1c6.2-0.3,12.5-0.6,18.8-0.6c0.5,0,1.1-0.2,1.3,0.4c0.2,0.5-0.4,0.7-0.7,0.9c-7.2,5-14.5,9.8-22.2,13.9
	c-9,4.8-16.7,2.4-23.2-3.3C233.2,288.6,230.8,285.7,228.9,282.4z M267.8,331.1L267.8,331.1c-0.1,3.1,0,6.3-0.1,9.4
	c-0.1,5.8-3.4,10.6-9,11.8c-5.4,1.1-11,1.5-15.4-3.1c-2.2-2.3-3.4-5.1-3.4-8.2c-0.1-6.5,0-13.1-0.1-19.6c0-1.3,0.5-1.8,1.8-1.8
	c5.1,0.1,4.3-0.6,4.3,4.2c0.1,5.1,0.1,10.3,0,15.4c-0.1,6.5,6,9.7,11.6,7.2c3.6-1.6,4.2-4.9,4.3-8.4c0.1-5.6,0.1-11.2,0-16.8
	c0-1.2,0.3-1.7,1.5-1.6c1.1,0.1,2.2,0,3.2,0c1,0,1.3,0.4,1.2,1.4C267.8,324.4,267.8,327.8,267.8,331.1z M305,352.4
	c-0.5,0-1.1,0-1.6,0c-3.1-0.1-2.9,0.6-4.4-3c-2-4.8-1.1-4.1-6.1-4.1c-3.1,0-6.3,0-9.4,0c-1.3,0-2.1,0.5-2.6,1.7
	c-0.5,1.4-1.2,2.8-1.8,4.2c-0.2,0.5-0.4,1.2-0.9,1.2c-1.8,0.1-3.5,0.2-5.3,0c-0.8-0.1-0.2-0.8-0.1-1.2c1.8-4,3.5-8,5.3-12
	c2.6-6,5.3-11.9,7.9-17.9c0.5-1.2,1.2-1.6,2.5-1.7c2.8-0.3,4.2,0.6,5.4,3.4c3.9,9.4,8.1,18.6,12.2,27.9
	C306.6,352.1,306.3,352.5,305,352.4z M353.5,321.2c-2.4,6.9-4.8,13.9-7.2,20.8c-1,2.9-2,5.7-3,8.6c-0.4,1.3-1.1,1.8-2.5,1.8
	c-4.1-0.1-3.3,0.5-4.6-3.3c-2-5.7-4.1-11.4-5.8-17.2c-0.1-0.4-0.3-0.9-0.8-0.9c-0.7,0-0.8,0.6-1,1.1c-2.1,6-4.2,12-6.2,18.1
	c-0.5,1.6-1.3,2.1-2.9,2.1c-3.1-0.1-3.1,0-4.1-2.9c-3.2-9.2-6.5-18.4-9.7-27.6c-0.1-0.3-0.2-0.6-0.3-0.9c-0.5-1.1,0-1.3,1-1.3
	c0.6,0,1.3,0,1.9,0c0.4,0,0.9,0.1,1.3,0c1.6-0.3,2.2,0.6,2.6,2c2,6.4,4,12.8,6,19.1c0.1,0.5,0.3,1,0.9,1c0.6,0,0.7-0.5,0.9-1
	c2.2-6.6,4.3-13.1,6.5-19.7c0.3-1,0.8-1.4,1.8-1.4c3.6-0.2,3.6-0.2,4.8,3.1c2,5.9,4,11.9,6,17.8c0.2,0.5,0.1,1.2,0.9,1.2
	c0.7,0,0.7-0.7,0.9-1.2c2.1-6.5,4.2-12.9,6.2-19.4c0.3-1,0.9-1.5,2-1.5c1.1,0.1,2.2,0,3.2,0C353.7,319.6,353.9,320.1,353.5,321.2z
	 M342.9,295.2c-8.5-4.1-16.2-9.6-24-14.8c-0.3-0.2-0.9-0.4-0.6-1c0.2-0.4,0.7-0.3,1-0.3c1,0,1.9,0,2.9,0c0,0,0,0,0,0.1
	c10.4,0.3,20.8,0.6,31.2,1c5.7,0.2,11.3,0.6,17,0.6c2.1,0,2.2,0.2,1.1,1.9c-3.3,5.1-7.2,9.6-12.8,12.3
	C353.5,297.6,348.3,297.8,342.9,295.2z M383.4,352.4c-6.9-0.1-13.8-0.1-20.7,0c-1.4,0-1.9-0.4-1.9-1.9c0.1-4.9,0-9.7,0-14.6
	c0-4.8,0-9.5,0-14.3c0-1.5,0.4-2.1,2-2.1c6.7,0.1,13.4,0.1,20.1,0c1.4,0,1.9,0.4,1.9,1.9c-0.1,4.2,0.3,3.6-3.7,3.7
	c-4.1,0-8.1,0-12.2,0c-1.6,0-2.2,0.6-2.1,2.1c0.1,1,0,2.1,0,3.1c0,2.2,0.2,2.3,2.3,2.3c2.8,0,5.6,0,8.4,0c1.3,0,2,0.3,1.7,1.8
	c-0.1,0.5,0,1.1,0,1.6c0.1,2.1,0.1,2.1-1.9,2.1c-2.8,0-5.6,0.1-8.4,0c-1.5,0-2,0.6-2,2c0.1,1.6,0,3.1,0,4.7c0,2.1,0.3,2.4,2.3,2.4
	c4.6,0,9.2,0,13.8,0c2.3,0,2.4,0,2.4,2.3c0,0.3,0,0.5,0,0.8C385.6,351.9,385,352.5,383.4,352.4z M388.5,248
	c-2.4,12.2-9.5,20.5-21.3,24.8c-4.3,1.6-8.8,1.6-13.3,1.7c-5.7,0.1-11.3,0-17,0v0c-6,0-12,0-18,0c-0.6,0-1.4,0.3-1.6-0.4
	c-0.2-0.7,0.6-0.9,1.1-1.2c8.8-5.7,17.7-11.2,26.8-16.4c11.9-6.9,23.9-13.6,36-20.2c1.6-0.9,3.3-1.7,4.8-2.6
	c1.1-0.7,1.6-0.4,1.9,0.8C389.1,238.9,389.3,243.5,388.5,248z M399.9,324c0.1,8.7,0,17.5,0,26.2c0,2-0.1,2.1-2.1,2.1
	c-3.8,0-3.8,0-3.8-3.7V336H394c0-5.1,0-10.1,0-15.2c0-0.7,0.2-1.1,1-1.1c0.1,0,0.2,0,0.3,0C400.9,319.7,399.9,319,399.9,324z
	 M294.3,338.2c0.5,1.1,0.2,1.8-1.1,1.8c-1.3,0-2.6,0-3.9,0v0c-1.2,0-2.5,0-3.7,0c-1.2,0-1.6-0.6-1.1-1.7c1.3-3.1,2.7-6.2,4-9.4
	c0.2-0.4,0.4-0.8,0.9-0.8c0.5,0,0.7,0.4,0.9,0.8C291.6,332.1,293,335.2,294.3,338.2z"/>
<path class="st1" d="M283.3,274.1c-0.2,0.8-1.1,0.5-1.7,0.5c-3.3,0-6.7,0-10,0h-9.6c0,0,0,0,0,0c-6,0-12.1,0-18.1,0
	c-15.6-0.1-28.8-11.2-31.6-26.6c-0.8-4.6-0.5-9,0.6-13.5c0.3-1.3,0.8-1.4,1.9-0.8c13,7.1,25.9,14.2,38.7,21.6
	c9.4,5.4,18.7,10.9,27.8,16.9c0.3,0.2,0.6,0.4,0.9,0.6C282.6,273.3,283.5,273.4,283.3,274.1z"/>
<path class="st1" d="M229.2,350.6c0,1.5-0.5,2.1-2,2.1c-4.7-0.1-4.1,0.4-4.1-4.1c0-2.6,0-5.3,0-7.9c0-1.3-0.5-1.9-1.8-1.9
	c-4.1,0-8.2,0-12.3,0c-1.4,0-1.9,0.7-1.8,2c0,3.3,0,6.7,0,10c0,1.3-0.5,1.8-1.8,1.8c-5.1-0.1-4.3,0.6-4.3-4.3c0-8.8,0-17.6,0-26.4
	c0-2.4,0-2.4,2.3-2.4c4.4,0,3.8-0.5,3.8,3.8c0,2.6,0,5.2,0,7.8c0,1.4,0.4,2.1,1.9,2.1c4-0.1,8.1,0,12.1,0c1.4,0,1.9-0.6,1.9-2
	c0-3.3,0-6.6,0-9.9c0-1.3,0.5-1.8,1.8-1.8c5.1,0.1,4.3-0.6,4.3,4.2c0,4.1,0,8.2,0,12.3C229.1,341,229.1,345.8,229.2,350.6z"/>
<path class="st1" d="M287.7,267.6c-0.5,0.4-1.1-0.1-1.6-0.4c-3.5-1.8-7-3.6-10.5-5.4c-10.7-5.7-21.2-11.7-31.1-18.6
	c-4.5-3.2-8.8-6.6-12.7-10.5c-4.7-4.8-7.2-10.6-7.2-18.5c-0.1-5.6,2.8-11.3,6.3-16.9c1.9-3,4.1-5.7,6.6-8.2c1.3-1.4,1.5-1.4,2.7,0.2
	c7.3,9.3,14,18.9,20.5,28.8c9.1,13.9,17.3,28.3,24.5,43.2c0.8,1.6,1.5,3.1,2.2,4.7C287.5,266.5,288.3,267.1,287.7,267.6z"/>
<path class="st1" d="M267.8,331.1L267.8,331.1c-0.1,3.1,0,6.3-0.1,9.4c-0.1,5.8-3.4,10.6-9,11.8c-5.4,1.1-11,1.5-15.4-3.1
	c-2.2-2.3-3.4-5.1-3.4-8.2c-0.1-6.5,0-13.1-0.1-19.6c0-1.3,0.5-1.8,1.8-1.8c5.1,0.1,4.3-0.6,4.3,4.2c0.1,5.1,0.1,10.3,0,15.4
	c-0.1,6.5,6,9.7,11.6,7.2c3.6-1.6,4.2-4.9,4.3-8.4c0.1-5.6,0.1-11.2,0-16.8c0-1.2,0.3-1.7,1.5-1.6c1.1,0.1,2.2,0,3.2,0
	c1,0,1.3,0.4,1.2,1.4C267.8,324.4,267.8,327.8,267.8,331.1z"/>
<path class="st1" d="M340.7,189.8c0.2,8-2.2,14.9-4.9,21.6c-4.5,11.2-10.6,21.7-16.8,32.1c-3.7,6.1-7.5,12.1-11.6,18
	c-0.4,0.6-0.8,1.7-1.6,1.5c-0.8-0.2-0.6-1.3-0.6-2c-0.4-4.8-0.9-9.7-1.1-14.5c-0.5-8.6-1.1-17.2-0.9-25.9c0.2-12.1,1-24.3,3.3-36.2
	c1.2-6.3,2.9-12.5,5.8-18.3c0.5-1,1.1-1.8,2.5-1.7c6.9,0.8,13.5,2.3,18.6,7.4C338.3,176.9,341.3,183,340.7,189.8z"/>
<path class="st1" d="M376.3,215.6c-0.3,7.8-3.7,14.2-9.5,19.3c-10.4,9.2-22.3,16.1-34.3,22.9c-5.8,3.3-11.8,6.4-17.7,9.4
	c-0.5,0.3-1.1,0.9-1.6,0.4c-0.7-0.6,0-1.2,0.3-1.7c6.5-14,13.9-27.4,22.1-40.5c7.6-12.2,15.8-24.1,24.7-35.5
	c1.8-2.4,1.9-2.4,3.8-0.2c5.1,5.6,9.4,11.8,11.3,19.2C375.9,211.1,376.5,213.3,376.3,215.6z"/>
<path class="st1" d="M296.5,250.3c-0.2,3.7-0.6,7.3-1,10.9c0,0.2,0,0.4-0.1,0.6c-0.1,0.4-0.1,1.1-0.6,1.2c-0.6,0.1-0.8-0.5-1-0.9
	c-3.5-5.3-7-10.5-10.3-15.9c-5.4-8.7-10.5-17.6-15-26.9c-3.4-7.1-6.5-14.4-8-22.2c-1.8-9.1-0.4-17.6,6.1-24.6
	c3.3-3.5,7.4-5.8,12.1-6.9c2-0.5,4-0.9,6-1.3c2.5-0.5,3.1-0.1,4.2,2.2c3.4,7.3,5.2,15.1,6.4,23c1.7,11.2,2.4,22.4,2.3,34.3
	C297.6,232.4,297,241.3,296.5,250.3z"/>
<path class="st1" d="M281.6,280.5c-7.2,5-14.5,9.8-22.2,13.9c-9,4.8-16.7,2.4-23.2-3.3c-2.9-2.5-5.3-5.4-7.2-8.7
	c-0.8-1.3-0.6-1.6,0.9-1.6c0.9,0,1.8,0,2.8,0c0,0,0,0,0-0.1c9.9-0.3,19.8-0.6,29.8-1c6.3-0.3,12.5-0.6,18.8-0.6
	c0.5,0,1.1-0.2,1.3,0.4C282.5,280,281.9,280.3,281.6,280.5z"/>
<path class="st1" d="M388.5,248c-2.4,12.2-9.5,20.5-21.3,24.8c-4.3,1.6-8.8,1.6-13.3,1.7c-5.7,0.1-11.3,0-17,0v0c-6,0-12,0-18,0
	c-0.6,0-1.4,0.3-1.6-0.4c-0.2-0.7,0.6-0.9,1.1-1.2c8.8-5.7,17.7-11.2,26.8-16.4c11.9-6.9,23.9-13.6,36-20.2c1.6-0.9,3.3-1.7,4.8-2.6
	c1.1-0.7,1.6-0.4,1.9,0.8C389.1,238.9,389.3,243.5,388.5,248z"/>
<path class="st1" d="M383.4,352.4c-6.9-0.1-13.8-0.1-20.7,0c-1.4,0-1.9-0.4-1.9-1.9c0.1-4.9,0-9.7,0-14.6c0-4.8,0-9.5,0-14.3
	c0-1.5,0.4-2.1,2-2.1c6.7,0.1,13.4,0.1,20.1,0c1.4,0,1.9,0.4,1.9,1.9c-0.1,4.2,0.3,3.6-3.7,3.7c-4.1,0-8.1,0-12.2,0
	c-1.6,0-2.2,0.6-2.1,2.1c0.1,1,0,2.1,0,3.1c0,2.2,0.2,2.3,2.3,2.3c2.8,0,5.6,0,8.4,0c1.3,0,2,0.3,1.7,1.8c-0.1,0.5,0,1.1,0,1.6
	c0.1,2.1,0.1,2.1-1.9,2.1c-2.8,0-5.6,0.1-8.4,0c-1.5,0-2,0.6-2,2c0.1,1.6,0,3.1,0,4.7c0,2.1,0.3,2.4,2.3,2.4c4.6,0,9.2,0,13.8,0
	c2.3,0,2.4,0,2.4,2.3c0,0.3,0,0.5,0,0.8C385.6,351.9,385,352.5,383.4,352.4z"/>
<path class="st1" d="M399.9,324.1c0.1,8.7,0,17.5,0,26.2c0,2-0.1,2.1-2.1,2.1c-3.8,0-3.8,0-3.8-3.7V336H394c0-5.1,0-10.1,0-15.2
	c0-0.7,0.2-1.1,1-1.1c0.1,0,0.2,0,0.3,0C400.9,319.7,399.9,319,399.9,324.1z"/>
<path class="st1" d="M371.6,282.7c-3.3,5.1-7.2,9.6-12.8,12.3c-5.3,2.6-10.5,2.8-15.9,0.2c-8.5-4.1-16.2-9.6-24-14.8
	c-0.3-0.2-0.9-0.4-0.6-1c0.2-0.4,0.7-0.3,1-0.3c1,0,1.9,0,2.9,0c0,0,0,0,0,0.1c10.4,0.3,20.8,0.6,31.2,1c5.7,0.2,11.3,0.6,17,0.6
	C372.5,280.8,372.7,281,371.6,282.7z"/>
<path class="st1" d="M306,350.8c-4.1-9.3-8.3-18.5-12.2-27.9c-1.1-2.8-2.6-3.7-5.4-3.4c-1.3,0.1-2,0.5-2.5,1.7
	c-2.6,6-5.2,12-7.9,17.9c-1.8,4-3.6,8-5.3,12c-0.2,0.4-0.7,1.1,0.1,1.2c1.8,0.1,3.5,0.1,5.3,0c0.5,0,0.7-0.7,0.9-1.2
	c0.6-1.4,1.2-2.8,1.8-4.2c0.5-1.2,1.3-1.7,2.6-1.7c3.1,0,6.3,0,9.4,0c5,0.1,4.1-0.7,6.1,4.1c1.5,3.6,1.3,2.9,4.4,3
	c0.5,0,1.1,0,1.6,0C306.3,352.5,306.6,352.1,306,350.8z M293.2,340.1c-1.3,0-2.6,0-3.9,0v0c-1.2,0-2.5,0-3.7,0
	c-1.2,0-1.6-0.6-1.1-1.7c1.3-3.1,2.7-6.2,4-9.4c0.2-0.4,0.4-0.8,0.9-0.8c0.5,0,0.7,0.4,0.9,0.8c1.3,3.1,2.7,6.1,4,9.2
	C294.8,339.4,294.5,340,293.2,340.1z"/>
<path class="st1" d="M353.5,321.2c-2.4,6.9-4.8,13.9-7.2,20.8c-1,2.9-2,5.7-3,8.6c-0.4,1.3-1.1,1.8-2.5,1.8
	c-4.1-0.1-3.3,0.5-4.6-3.3c-2-5.7-4.1-11.4-5.8-17.2c-0.1-0.4-0.3-0.9-0.8-0.9c-0.7,0-0.8,0.6-1,1.1c-2.1,6-4.2,12-6.2,18.1
	c-0.5,1.6-1.3,2.1-2.9,2.1c-3.1-0.1-3.1,0-4.1-2.9c-3.2-9.2-6.5-18.4-9.7-27.6c-0.1-0.3-0.2-0.6-0.3-0.9c-0.5-1.1,0-1.3,1-1.3
	c0.6,0,1.3,0,1.9,0c0.4,0,0.9,0.1,1.3,0c1.6-0.3,2.2,0.6,2.6,2c2,6.4,4,12.8,6,19.1c0.1,0.5,0.3,1,0.9,1c0.6,0,0.7-0.5,0.9-1
	c2.2-6.6,4.3-13.1,6.5-19.7c0.3-1,0.8-1.4,1.8-1.4c3.6-0.2,3.6-0.2,4.8,3.1c2,5.9,4,11.9,6,17.8c0.2,0.5,0.1,1.2,0.9,1.2
	c0.7,0,0.7-0.7,0.9-1.2c2.1-6.5,4.2-12.9,6.2-19.4c0.3-1,0.9-1.5,2-1.5c1.1,0.1,2.2,0,3.2,0C353.7,319.6,354,320.1,353.5,321.2z"/>
<path class="st1" d="M381.7,100.9c-1.6,2.1-3.3,4.2-4.9,6.3c-12.5,15.7-28.5,26.4-47.5,32.5c-14,4.4-28.3,5.5-42.9,3.6
	c-15.4-2-29.4-7.5-42.3-16.1c-6.3-4.2-12-9-17-14.6c-3-3.3-5.9-6.7-8.4-10.4c-0.3-0.5-0.5-1.1-1.1-1.3c-1.2-2.1-2.5-4.1-3.7-6.2
	c-1.3-2.2-0.7-4.4,1.3-5.6c1.8-1,3.9-0.4,5.2,1.7c1.2,1.9,2.3,3.9,3.7,5.6c2.3,4,5.3,7.4,8.5,10.8c12.1,13.1,26.8,22,44.1,26.5
	c11,2.9,22.2,3.6,33.5,2.3c22.4-2.6,41.2-12.4,56.6-28.8c2.9-3,5.4-6.3,7.8-9.7c0.2-0.3,0.6-0.6,0.6-1.1c1.4-1.7,2.5-3.6,3.7-5.5
	c0.7-1.2,1.6-2.1,3-2.2c1.5-0.2,2.8,0.3,3.6,1.6c0.9,1.3,1,2.6,0.2,4C384.3,96.5,383,98.7,381.7,100.9z"/>
<path class="st2" d="M381.7,100.9c1.3-2.2,2.6-4.4,3.9-6.6c0.8-1.3,0.7-2.7-0.2-4c-0.9-1.3-2.1-1.8-3.6-1.6c-1.4,0.2-2.3,1.1-3,2.2
	c-1.1,1.9-2.2,3.8-3.7,5.5c-1-0.5-1.3-1.5-1.5-2.5c-1.1-5.8,2-10.8,7.6-11.8c6-1.1,11.3,3.6,11.3,9.3c0,5.3-3.9,9-8.8,9.8
	C383,101.4,382.3,101,381.7,100.9z"/>
<path class="st2" d="M224,96.4c-1.4-1.7-2.5-3.7-3.7-5.6c-1.3-2.1-3.4-2.7-5.2-1.7c-2,1.2-2.6,3.3-1.3,5.6c1.2,2.1,2.4,4.1,3.7,6.2
	c-5.6,0.7-9.9-3-10.9-8.2c-0.8-4.3,3.3-10,7.6-10.5c5.5-0.7,9.1,1.5,11.1,6.5C226.3,91.1,225.6,95.2,224,96.4z"/>
</svg>
