<?xml version="1.0" encoding="UTF-8" standalone="no"?>
<!DOCTYPE svg PUBLIC "-//W3C//DTD SVG 1.1//EN" "http://www.w3.org/Graphics/SVG/1.1/DTD/svg11.dtd">
<svg xmlns="http://www.w3.org/2000/svg" xmlns:xlink="http://www.w3.org/1999/xlink" xmlns:serif="http://www.serif.com/" width="100%" height="100%" viewBox="0 0 120 120" version="1.1" xml:space="preserve" style="fill-rule:evenodd;clip-rule:evenodd;stroke-linejoin:round;stroke-miterlimit:2;">
    <g transform="matrix(1.09091,0,0,1.09091,-10.9091,-4.36364)">
        <path d="M65,4C62.788,9.67 59.04,14.013 53.754,17.031C47.668,17.06 42.25,15.173 37.5,11.369C38.42,17.385 37.345,23.021 34.276,28.276C29.021,31.345 23.385,32.42 17.369,31.5C21.173,36.25 23.06,41.668 23.031,47.754C20.013,53.04 15.67,56.788 10,59C15.67,61.212 20.013,64.96 23.031,70.246C23.06,76.332 21.173,81.75 17.369,86.5C23.385,85.58 29.021,86.655 34.276,89.724C37.345,94.979 38.42,100.615 37.5,106.631C42.25,102.827 47.668,100.94 53.754,100.969C59.04,103.987 62.788,108.33 65,114C67.212,108.33 70.96,103.987 76.246,100.969C82.332,100.94 87.75,102.827 92.5,106.631C91.58,100.615 92.655,94.979 95.724,89.724C100.979,86.655 106.615,85.58 112.631,86.5C108.827,81.75 106.94,76.332 106.969,70.246C109.987,64.96 114.33,61.212 120,59C114.33,56.788 109.987,53.04 106.969,47.754C106.94,41.668 108.827,36.25 112.631,31.5C106.615,32.42 100.979,31.345 95.724,28.276C92.655,23.021 91.58,17.385 92.5,11.369C87.75,15.173 82.332,17.06 76.246,17.031C70.96,14.013 67.212,9.67 65,4ZM65,24.35C84.124,24.35 99.65,39.876 99.65,59C99.65,78.124 84.124,93.65 65,93.65C45.876,93.65 30.35,78.124 30.35,59C30.35,39.876 45.876,24.35 65,24.35Z" style="fill:rgb(255,204,0);"/>
    </g>
    <path d="M60,31C76.006,31 89,43.994 89,60C89,76.006 76.006,89 60,89C43.994,89 31,76.006 31,60C31,43.994 43.994,31 60,31ZM50.802,53.934L50.802,73.086L46.446,73.086L46.446,49.326C46.446,48.486 46.656,47.82 47.076,47.328C47.496,46.836 48.066,46.59 48.786,46.59C49.122,46.59 49.446,46.662 49.758,46.806C50.07,46.95 50.394,47.19 50.73,47.526L69.198,65.85L69.198,46.698L73.554,46.698L73.554,70.674C73.554,71.538 73.344,72.21 72.924,72.69C72.504,73.17 71.958,73.41 71.286,73.41C70.542,73.41 69.846,73.086 69.198,72.438L50.802,53.934Z" style="fill:rgb(255,204,0);"/>
</svg>
