<?xml version="1.0" encoding="UTF-8" standalone="no"?>
<!DOCTYPE svg PUBLIC "-//W3C//DTD SVG 1.1//EN" "http://www.w3.org/Graphics/SVG/1.1/DTD/svg11.dtd">
<svg xmlns="http://www.w3.org/2000/svg" xmlns:xlink="http://www.w3.org/1999/xlink" xmlns:serif="http://www.serif.com/" width="100%" height="100%" viewBox="0 0 120 120" version="1.1" xml:space="preserve" style="fill-rule:evenodd;clip-rule:evenodd;stroke-linejoin:round;stroke-miterlimit:2;">
    <g transform="matrix(1.09091,0,0,1.09091,-10.9091,-4.36364)">
        <path d="M65,4C62.788,9.67 59.04,14.013 53.754,17.031C47.668,17.06 42.25,15.173 37.5,11.369C38.42,17.385 37.345,23.021 34.276,28.276C29.021,31.345 23.385,32.42 17.369,31.5C21.173,36.25 23.06,41.668 23.031,47.754C20.013,53.04 15.67,56.788 10,59C15.67,61.212 20.013,64.96 23.031,70.246C23.06,76.332 21.173,81.75 17.369,86.5C23.385,85.58 29.021,86.655 34.276,89.724C37.345,94.979 38.42,100.615 37.5,106.631C42.25,102.827 47.668,100.94 53.754,100.969C59.04,103.987 62.788,108.33 65,114C67.212,108.33 70.96,103.987 76.246,100.969C82.332,100.94 87.75,102.827 92.5,106.631C91.58,100.615 92.655,94.979 95.724,89.724C100.979,86.655 106.615,85.58 112.631,86.5C108.827,81.75 106.94,76.332 106.969,70.246C109.987,64.96 114.33,61.212 120,59C114.33,56.788 109.987,53.04 106.969,47.754C106.94,41.668 108.827,36.25 112.631,31.5C106.615,32.42 100.979,31.345 95.724,28.276C92.655,23.021 91.58,17.385 92.5,11.369C87.75,15.173 82.332,17.06 76.246,17.031C70.96,14.013 67.212,9.67 65,4ZM65,24.35C84.124,24.35 99.65,39.876 99.65,59C99.65,78.124 84.124,93.65 65,93.65C45.876,93.65 30.35,78.124 30.35,59C30.35,39.876 45.876,24.35 65,24.35Z" style="fill:rgb(255,204,0);"/>
    </g>
    <path d="M60,31C76.006,31 89,43.994 89,60C89,76.006 76.006,89 60,89C43.994,89 31,76.006 31,60C31,43.994 43.994,31 60,31ZM46.428,73.086L46.428,68.514L66.048,68.514C67.272,68.514 68.214,68.202 68.874,67.578C69.534,66.954 69.864,66.126 69.864,65.094C69.864,63.966 69.534,63.12 68.874,62.556C68.214,61.992 67.272,61.71 66.048,61.71L54.024,61.71C52.8,61.71 51.69,61.524 50.694,61.152C49.698,60.78 48.858,60.264 48.174,59.604C47.49,58.944 46.962,58.158 46.59,57.246C46.218,56.334 46.032,55.338 46.032,54.258C46.032,53.202 46.206,52.224 46.554,51.324C46.902,50.424 47.418,49.65 48.102,49.002C48.786,48.354 49.632,47.844 50.64,47.472C51.648,47.1 52.8,46.914 54.096,46.914L72.888,46.914L72.888,51.486L54.096,51.486C53.04,51.486 52.224,51.768 51.648,52.332C51.072,52.896 50.784,53.682 50.784,54.69C50.784,55.698 51.078,56.478 51.666,57.03C52.254,57.582 53.052,57.858 54.06,57.858L66.048,57.858C68.712,57.858 70.734,58.482 72.114,59.73C73.494,60.978 74.184,62.874 74.184,65.418C74.184,66.522 74.016,67.542 73.68,68.478C73.344,69.414 72.84,70.224 72.168,70.908C71.496,71.592 70.65,72.126 69.63,72.51C68.61,72.894 67.416,73.086 66.048,73.086L46.428,73.086Z" style="fill:rgb(255,204,0);"/>
</svg>
